<?xml version="1.0" encoding="utf-8"?>
<!-- Generator: Adobe Illustrator 16.0.2, SVG Export Plug-In . SVG Version: 6.00 Build 0)  -->
<!DOCTYPE svg PUBLIC "-//W3C//DTD SVG 1.1//EN" "http://www.w3.org/Graphics/SVG/1.1/DTD/svg11.dtd">
<svg version="1.1" id="Layer_1" xmlns="http://www.w3.org/2000/svg" xmlns:xlink="http://www.w3.org/1999/xlink" x="0px" y="0px"
	 width="841.89px" height="505.28px" viewBox="0 0 841.89 505.28" enable-background="new 0 0 841.89 505.28" xml:space="preserve">
<linearGradient id="SVGID_1_" gradientUnits="userSpaceOnUse" x1="-6" y1="474" x2="847" y2="474">
	<stop  offset="0" style="stop-color:#12916D"/>
	<stop  offset="1" style="stop-color:#26ADCD"/>
</linearGradient>
<path fill="url(#SVGID_1_)" d="M700.751,338c-26.168,0-50.725,6.397-71.979,17.593C607.521,344.397,582.964,338,556.797,338
	c-24.922,0-48.38,5.803-68.915,16.022C467.349,343.803,443.889,338,418.969,338c-23.993,0-46.637,5.374-66.616,14.896
	C332.372,343.374,309.729,338,285.735,338c-26.48,0-51.317,6.546-72.742,17.989C191.568,344.546,166.732,338,140.25,338
	C59.478,338-6,398.89-6,474c0,75.109,65.478,136,146.25,136c26.482,0,51.319-6.545,72.744-17.989
	C234.418,603.455,259.255,610,285.735,610c23.994,0,46.637-5.375,66.618-14.896C372.332,604.625,394.976,610,418.969,610
	c24.92,0,48.38-5.803,68.913-16.023C508.417,604.197,531.875,610,556.797,610c26.167,0,50.725-6.397,71.976-17.591
	C650.026,603.603,674.583,610,700.751,610C781.52,610,847,549.109,847,474C847,398.89,781.52,338,700.751,338z"/>
</svg>
