<svg height="469pt" viewBox="0 0 469 469.33707" width="469pt" xmlns="http://www.w3.org/2000/svg"><path d="m341.5 170.671875c11.785156 0 21.335938 9.550781 21.335938 21.332031v21.332032c0 11.785156-9.550782 21.335937-21.335938 21.335937-11.78125 0-21.332031-9.550781-21.332031-21.335937v-21.332032c0-11.78125 9.550781-21.332031 21.332031-21.332031zm0 0" fill="#cb7956"/><path d="m128.167969 170.671875c11.78125 0 21.332031 9.550781 21.332031 21.332031v21.332032c0 11.785156-9.550781 21.335937-21.332031 21.335937s-21.332031-9.550781-21.332031-21.335937v-21.332032c0-11.78125 9.550781-21.332031 21.332031-21.332031zm0 0" fill="#e29971"/><path d="m170.835938 256.003906v64c0 11.78125-9.550782 21.332032-21.335938 21.332032h-64c-47.125 0-85.332031 38.207031-85.332031 85.335937v42.664063h469.332031v-42.664063c0-47.128906-38.203125-85.335937-85.332031-85.335937h-64c-11.78125 0-21.332031-9.550782-21.332031-21.332032v-64zm0 0" fill="#e29971"/><path d="m149.5 384.003906h42.667969c11.78125 0 21.332031 9.550782 21.332031 21.332032 0 11.785156-9.550781 21.335937-21.332031 21.335937h-42.667969c-11.78125 0-21.332031-9.550781-21.332031-21.335937 0-11.78125 9.550781-21.332032 21.332031-21.332032zm0 0" fill="#edbda4"/><path d="m213.5 405.335938c0 11.785156-9.550781 21.335937-21.332031 21.335937s-21.332031-9.550781-21.332031-21.335937c0-11.78125 9.550781-21.332032 21.332031-21.332032s21.332031 9.550782 21.332031 21.332032zm0 0" fill="#f5d9cb"/><path d="m320.167969 341.335938c-11.78125 0-21.332031-9.550782-21.332031-21.332032v-64h-64v85.332032h21.332031v21.335937h-42.667969v21.332031c0 11.78125 9.554688 21.332032 21.335938 21.332032s21.332031-9.550782 21.332031-21.332032h85.332031v-42.667968zm0 0" fill="#cb7956"/><path d="m234.835938 21.335938c58.910156 0 106.664062 47.757812 106.664062 106.667968v85.332032c0 58.910156-47.753906 106.667968-106.664062 106.667968-58.910157 0-106.667969-47.757812-106.667969-106.667968v-85.332032c0-58.910156 47.757812-106.667968 106.667969-106.667968zm0 0" fill="#edbda4"/><path d="m298.835938 43.152344v84.851562h-42.667969v21.332032h42.667969v42.667968c11.78125 0 21.332031 9.550782 21.332031 21.332032 0 11.785156-9.550781 21.335937-21.332031 21.335937h-64v64h21.332031v19.183594c49.660156-10.148438 85.328125-53.832031 85.332031-104.519531v-85.332032c0-34.785156-16.898438-65.378906-42.664062-84.851562zm0 0" fill="#e29971"/><path d="m213.503906 213.335938v21.335937h42.664063v-64h42.667969v-21.335937h-64v64zm0 0" fill="#cb7956"/><path d="m277.5 170.671875h21.335938v21.332031h-21.335938zm0 0" fill="#4c2c1a"/><path d="m170.835938 170.671875h21.332031v21.332031h-21.332031zm0 0" fill="#4c2c1a"/><path d="m213.5 256.003906h42.667969v21.332032h-42.667969zm0 0" fill="#ce464d"/><path d="m384.167969 341.335938h-64c0 47.128906-38.203125 85.335937-85.332031 85.335937-47.128907 0-85.335938-38.207031-85.335938-85.335937h-64c-47.125 0-85.332031 38.207031-85.332031 85.335937v42.664063h469.332031v-42.664063c.003906-47.128906-38.203125-85.335937-85.332031-85.335937zm0 0" fill="#ce464d"/><path d="m42.835938 469.335938h-21.335938v-42.664063c.039062-35.332031 28.671875-63.964844 64-64v21.332031c-23.550781.023438-42.640625 19.113282-42.664062 42.667969zm0 0" fill="#e08a8e"/><path d="m234.835938 469.335938v-21.332032c58.882812-.070312 106.597656-47.785156 106.664062-106.667968h21.335938c-.078126 70.660156-57.339844 127.925781-128 128zm0 0" fill="#ab0008"/><path d="m192.167969 85.335938s-21.332031 21.335937-21.332031 64h-21.335938v42.667968h-21.332031v-21.332031c-21.332031 0-42.667969-21.335937-42.667969-21.335937 0-82.472657 66.859375-149.33203175 149.335938-149.33203175 82.472656 0 149.332031 66.85937475 149.332031 149.33203175 0 0-21.332031 21.335937-42.667969 21.335937l-21.332031 21.332031v-42.667968h-21.332031c-85.335938 0-85.335938-64-85.335938-64zm0 0" fill="#224552"/><path d="m341.5 170.671875c21.335938 0 42.667969-21.335937 42.667969-21.335937.308593-43.417969-18.425781-84.792969-51.265625-113.199219s-76.476563-40.992188-119.402344-34.4375v83.636719c0 35.347656 28.65625 64 64 64h42.667969v42.667968h21.332031zm0 0" fill="#062d3c"/><path d="m192.167969 64.003906h21.332031v21.332032h-21.332031zm0 0" fill="#cb7956"/><path d="m128.167969 149.335938h-21.332031c.121093-50.019532 29.261718-95.417969 74.6875-116.363282l8.914062 19.375c-37.863281 17.453125-62.15625 55.296875-62.269531 96.988282zm0 0" fill="#4c6a74"/><path d="m341.5 149.335938h-21.332031v-21.332032h-32c-29.441407-.035156-53.296875-23.894531-53.332031-53.332031v-32h21.332031v32c.019531 17.664063 14.335937 31.980469 32 32h53.332031zm0 0" fill="#224552"/></svg>