<?xml version="1.0" encoding="utf-8"?>
<!-- Generator: Adobe Illustrator 16.0.2, SVG Export Plug-In . SVG Version: 6.00 Build 0)  -->
<!DOCTYPE svg PUBLIC "-//W3C//DTD SVG 1.1//EN" "http://www.w3.org/Graphics/SVG/1.1/DTD/svg11.dtd">
<svg version="1.1" id="Layer_1" xmlns="http://www.w3.org/2000/svg" xmlns:xlink="http://www.w3.org/1999/xlink" x="0px" y="0px"
	 width="841.891px" height="505.281px" viewBox="0 0 841.891 505.281" enable-background="new 0 0 841.891 505.281"
	 xml:space="preserve">
<linearGradient id="SVGID_1_" gradientUnits="userSpaceOnUse" x1="-178.8596" y1="226.167" x2="1121.0535" y2="226.167" gradientTransform="matrix(0.7893 -2.734923e-004 -4.024501e-004 -1.1606 52.709 531.7042)">
	<stop  offset="0" style="stop-color:#12916D"/>
	<stop  offset="1" style="stop-color:#26ADCD"/>
</linearGradient>
<path fill="url(#SVGID_1_)" d="M761.44-46.091c-31.477,0.01-61.007,14.844-86.564,40.788c-25.57-25.926-55.112-40.738-86.588-40.728
	c-29.976,0.011-58.188,13.462-82.882,37.149c-24.705-23.67-52.928-37.103-82.901-37.093c-28.86,0.01-56.093,12.472-80.117,34.539
	c-24.042-22.05-51.282-34.493-80.143-34.483c-31.852,0.011-61.722,15.188-87.482,41.708c-25.78-26.501-55.658-41.659-87.512-41.648
	C-9.904-45.825-88.615,95.266-88.555,269.269c0.061,174.004,78.87,315.042,176.024,315.008c31.854-0.01,61.724-15.186,87.485-41.704
	c25.777,26.502,55.657,41.655,87.51,41.645c28.86-0.011,56.092-12.475,80.119-34.533c24.039,22.043,51.28,34.487,80.141,34.478
	c29.975-0.012,58.187-13.463,82.876-37.149c24.709,23.67,52.932,37.102,82.907,37.091c31.474-0.012,61.009-14.838,86.561-40.779
	c25.573,25.923,55.115,40.73,86.592,40.719c97.152-0.034,175.865-141.124,175.805-315.127
	C937.404,94.911,858.593-46.125,761.44-46.091z"/>
</svg>
