<svg id="Capa_1" enable-background="new 0 0 512 512" height="512" viewBox="0 0 512 512" width="512" xmlns="http://www.w3.org/2000/svg"><g><path d="m240.998 0c-52.295 0-100.371 25.053-131.909 66.977h131.909 131.909c-31.538-41.924-79.615-66.977-131.909-66.977z" fill="#fabe2c"/><path d="m240.998 0v66.977h131.909c-31.538-41.924-79.615-66.977-131.909-66.977z" fill="#ff9100"/><path d="m438.517 234.32-60-90c-4.6-6.899-2.739-16.201 4.16-20.801 6.885-4.614 16.216-2.739 20.801 4.16l60 90c4.6 6.899 2.739 16.201-4.16 20.801-7.019 4.653-16.281 2.632-20.801-4.16z" fill="#6d1d40"/><path d="m405.998 121v30l-30 15h-270l-30-15v-30l30-15h270z" fill="#873a62"/><path d="m405.998 121v30l-30 15h-135v-60h135z" fill="#6d1d40"/><path d="m75.998 151h330v247.8h-330z" fill="#fabe2c"/><path d="m405.998 106v15h-330v-15c0-24.901 20.099-45 45-45h240c24.9 0 45 20.099 45 45z" fill="#873a62"/><path d="m405.998 106v15h-165v-60h120c24.9 0 45 20.099 45 45z" fill="#6d1d40"/><path d="m240.998 151h165v247.8h-165z" fill="#ff9100"/><path d="m340.629 361.974-15.842 14.542-17.895-15.516h-20.894v-20.127h-45-45v20.127h-21.01l-14.033 15.414-19.807-14.418c-53.219 5.054-95.15 50.486-95.15 105.004v30c0 8.291 6.709 15 15 15h45l30-30h105 105l30 30h45c8.291 0 15-6.709 15-15v-30c0-54.593-42.045-100.075-95.369-105.026z" fill="#ffbfab"/><path d="m375.998 512h45c8.291 0 15-6.709 15-15v-30c0-54.593-42.045-100.075-95.369-105.026l-15.842 14.542-17.895-15.516h-20.894v-20.127h-45v141.127h105z" fill="#ffbfab"/><path d="m330.998 181h-30c-24.6 0-46.199-11.4-60-30-13.801 18.6-35.4 30-60 30h-30c-8.401 0-15 6.599-15 15v60c0 57.9 47.1 105 105 105s105-47.1 105-105v-60c0-8.401-6.6-15-15-15z" fill="#ffe1ba"/><path d="m345.998 256v-60c0-8.401-6.599-15-15-15h-30c-24.6 0-46.199-11.4-60-30v210c57.899 0 105-47.1 105-105z" fill="#ffbfab"/><path d="m270.998 241c-8.291 0-15 6.709-15 15 0 8.276-6.724 15-15 15s-15-6.724-15-15c0-8.291-6.709-15-15-15s-15 6.709-15 15c0 24.814 20.186 45 45 45s45-20.186 45-45c0-8.291-6.709-15-15-15z" fill="#ff8fb8"/><path d="m285.998 256c0-8.291-6.709-15-15-15s-15 6.709-15 15c0 8.276-6.724 15-15 15v30c24.814 0 45-20.186 45-45z" fill="#ff5f96"/><path d="m364.176 421c-6.251-20.438-14.498-39.937-23.547-59.026-3.221-.298-6.334-.974-9.631-.974h-24.106c9.657 19.53 18.677 39.406 25.668 60l13.438 15z" fill="#e30a6c"/><path d="m149.331 421c6.887-20.409 15.952-40.276 25.657-60h-23.99c-3.373 0-6.557.683-9.849.996-8.996 19.147-16.965 38.732-23.146 59.004l17.996 15z" fill="#ff5f96"/><path d="m364.176 421h-123.178-122.996c-7.253 23.789-12.004 49.532-12.004 76v15h135 135v-15c0-26.799-4.631-52.498-11.822-76z" fill="#ff5f96"/><path d="m375.998 497c0-26.799-4.631-52.498-11.821-76h-123.179v91h135z" fill="#e30a6c"/></g></svg>