<svg id="Capa_1" enable-background="new 0 0 512 512" height="512" viewBox="0 0 512 512" width="512" xmlns="http://www.w3.org/2000/svg"><g><path d="m256 0c-107.695 0-195 88.305-195 196s87.305 195 195 195 195-87.305 195-195-87.305-196-195-196z" fill="#6d1d40"/><path d="m451 196c0-107.695-87.305-196-195-196v391c107.695 0 195-87.305 195-195z" fill="#58072a"/><path d="m376 361h-45l-30 15-45 136h210c8.291 0 15-6.709 15-15v-30c0-57.891-47.109-106-105-106z" fill="#ff9100"/><path d="m211 376-30-15h-45c-57.891 0-105 48.109-105 106v30c0 8.291 6.709 15 15 15h210z" fill="#fabe2c"/><path d="m301 361-15 15h-30-30l-15-15h-30v15c0 65.464 61.758 128.983 64.395 131.605 2.93 2.93 6.768 4.395 10.605 4.395s7.676-1.465 10.605-4.395c2.637-2.622 64.395-66.141 64.395-131.605v-15z" fill="#fed843"/><path d="m331 376v-15h-30l-15 15h-30v136c3.838 0 7.676-1.465 10.605-4.395 2.637-2.622 64.395-66.141 64.395-131.605z" fill="#fabe2c"/><path d="m256 340.873h-45v35.127c0 38.469 28.885 79.193 45 98.429 16.115-19.235 45-59.96 45-98.429v-35.127z" fill="#a34f3e"/><path d="m301 340.873h-45v133.556c16.115-19.235 45-59.96 45-98.429z" fill="#873f2e"/><path d="m325.097 116.942c-3.999-3.501-9.595-4.614-14.59-2.944-5.039 1.67-8.833 5.889-9.946 11.074-3.135 14.546-22.706 25.928-44.561 25.928s-41.426-11.382-44.561-25.928c-1.113-5.186-4.907-9.404-9.946-11.074-5.024-1.67-10.605-.557-14.59 2.944-22.822 19.952-35.903 48.765-35.903 79.058v60c0 57.891 47.109 105 105 105s105-47.109 105-105v-60c0-30.293-13.081-59.106-35.903-79.058z" fill="#c86e59"/><path d="m361 256v-60c0-30.293-13.081-59.106-35.903-79.058-3.999-3.501-9.595-4.614-14.59-2.944-5.039 1.67-8.833 5.889-9.946 11.074-3.135 14.546-22.706 25.928-44.561 25.928v210c57.891 0 105-47.109 105-105z" fill="#a34f3e"/><path d="m286 241c-8.291 0-15 6.709-15 15 0 8.276-6.724 15-15 15s-15-6.724-15-15c0-8.291-6.709-15-15-15s-15 6.709-15 15c0 24.814 20.186 45 45 45s45-20.186 45-45c0-8.291-6.709-15-15-15z" fill="#a34f3e"/><path d="m301 256c0-8.291-6.709-15-15-15s-15 6.709-15 15c0 8.276-6.724 15-15 15v30c24.814 0 45-20.186 45-45z" fill="#873f2e"/></g></svg>